<?xml version="1.0" standalone="no"?>
<!DOCTYPE svg PUBLIC "-//W3C//DTD SVG 20010904//EN"
 "http://www.w3.org/TR/2001/REC-SVG-20010904/DTD/svg10.dtd">
<svg version="1.0" xmlns="http://www.w3.org/2000/svg"
 width="197.000000pt" height="664.000000pt" viewBox="0 0 197.000000 664.000000"
 preserveAspectRatio="xMidYMid meet">

<g transform="translate(0.000000,664.000000) scale(0.100000,-0.100000)"
fill="#000000" stroke="none">
<path d="M1827 6423 c-4 -3 -7 -216 -7 -472 0 -313 -5 -532 -15 -666 -8 -110
-22 -301 -31 -425 -13 -173 -17 -387 -18 -920 -1 -382 -5 -1053 -10 -1490 -6
-698 -10 -818 -28 -985 -18 -167 -20 -256 -21 -735 0 -417 3 -555 13 -585 l13
-38 13 25 c35 67 37 111 35 893 -2 622 1 810 13 980 9 116 19 225 21 243 5 24
2 32 -9 32 -10 0 -16 -13 -20 -38 -2 -20 -2 231 2 558 3 327 6 894 7 1260 1
678 1 681 46 1195 14 161 24 1175 12 1175 -5 0 -13 -3 -16 -7z m-81 -6121 c-3
-45 -10 -90 -15 -100 -12 -20 -15 981 -3 1093 8 81 26 -862 18 -993z"/>
<path d="M685 6231 c-98 -20 -180 -54 -189 -77 -5 -12 122 -591 154 -706 13
-48 28 -51 171 -46 l111 3 -6 -30 c-42 -207 -107 -609 -102 -629 4 -17 22 -32
62 -51 97 -46 198 -67 324 -69 143 -1 164 8 174 81 4 26 27 161 52 298 24 138
50 286 58 330 12 69 12 85 0 114 -8 18 -14 46 -14 62 0 15 -7 34 -15 42 -16
17 -247 73 -338 83 l-59 6 4 286 3 287 -25 11 c-14 7 -81 15 -150 18 -100 4
-143 2 -215 -13z m333 -27 c62 -17 -30 -57 -182 -81 -109 -16 -249 -13 -287 8
-21 11 -22 12 -3 23 42 24 229 55 339 55 61 0 120 -2 133 -5z m29 -130 c-4
-37 -8 -69 -11 -71 -2 -3 -15 1 -28 8 -14 8 -63 13 -128 13 -118 0 -234 -24
-276 -57 l-26 -20 28 -15 c20 -11 59 -15 129 -15 111 0 200 15 258 45 22 11
41 17 43 15 9 -8 -22 -26 -86 -47 -87 -30 -287 -40 -341 -17 -34 14 -37 19
-53 87 -9 40 -16 75 -16 79 0 3 71 6 158 6 121 0 174 4 232 19 41 10 82 22 90
27 29 16 33 9 27 -57z m206 -493 c113 -21 137 -29 118 -41 -25 -15 -241 26
-249 48 -5 16 6 15 131 -7z m-102 -66 c70 -22 228 -47 273 -42 26 3 44 -27 27
-47 -11 -13 -35 -16 -115 -16 -85 0 -116 5 -186 28 -85 29 -85 29 -88 65 -2
21 1 37 5 37 5 0 43 -11 84 -25z m-25 -106 c52 -16 102 -23 202 -27 129 -4
132 -5 132 -27 0 -12 -13 -98 -30 -191 -16 -93 -41 -234 -55 -314 -36 -207
-23 -190 -157 -190 -84 0 -133 5 -188 21 -95 26 -167 57 -174 75 -3 7 1 49 10
91 8 43 34 188 57 323 l43 245 34 12 c19 7 40 10 46 8 7 -2 43 -13 80 -26z"/>
<path d="M1217 5260 c-26 -16 -56 -30 -66 -30 -10 0 -36 -6 -57 -14 -22 -7
-45 -12 -52 -10 -7 1 -8 0 -2 -3 7 -3 7 -10 -2 -21 -9 -11 -1 -9 23 6 20 12
43 22 50 21 8 0 1 -5 -14 -11 -19 -7 -26 -15 -23 -25 3 -8 6 -27 6 -41 l1 -27
17 28 c22 35 29 34 38 -5 6 -29 8 -30 14 -13 4 11 6 23 3 28 -2 4 1 7 8 7 7 0
10 -11 7 -30 -3 -20 0 -30 9 -30 7 0 13 9 13 19 0 25 14 29 78 23 39 -4 52 -1
52 8 0 7 -3 10 -6 7 -4 -4 -19 9 -35 29 -15 19 -29 34 -31 34 -2 -1 -15 1 -30
5 -32 8 -36 21 -10 29 18 7 71 45 61 46 -3 0 -26 -13 -52 -30z m-44 -47 c-7
-2 -21 -2 -30 0 -10 3 -4 5 12 5 17 0 24 -2 18 -5z"/>
<path d="M1300 5185 c0 -14 4 -25 9 -25 4 0 6 11 3 25 -2 14 -6 25 -8 25 -2 0
-4 -11 -4 -25z"/>
<path d="M976 5148 c-12 -57 -16 -228 -6 -228 6 0 10 24 10 56 0 30 4 53 9 50
20 -13 28 48 15 117 -7 33 -22 35 -28 5z"/>
<path d="M1034 5145 c-6 -15 2 -35 14 -35 4 0 8 11 8 25 2 27 -13 34 -22 10z"/>
<path d="M1230 5104 l-25 -14 25 0 c15 0 21 -3 14 -10 -5 -5 -34 -6 -66 -3
-42 4 -55 9 -51 19 6 16 -23 19 -32 4 -4 -6 -21 -8 -41 -4 -28 5 -34 3 -34
-11 0 -11 5 -15 15 -12 8 4 17 2 20 -3 4 -6 -1 -10 -9 -10 -10 0 -13 -6 -10
-15 4 -8 13 -15 21 -15 12 0 13 -3 4 -13 -6 -8 -8 -17 -5 -20 4 -4 -7 -2 -23
2 -29 9 -30 8 -29 -22 1 -24 7 -33 26 -38 14 -3 24 -10 23 -16 -1 -6 8 -19 20
-29 l22 -19 -20 24 -20 24 20 -7 c50 -20 79 -25 107 -19 27 5 31 4 26 -13 -7
-29 28 -26 41 3 7 16 7 23 0 23 -6 0 -7 5 -4 10 4 6 10 8 14 6 4 -3 14 6 21
19 7 13 17 22 22 19 4 -3 10 1 13 8 9 24 12 128 3 128 -4 0 -8 -6 -9 -12 0 -7
-4 -4 -8 7 -7 17 -8 17 -15 -8 -3 -15 -10 -27 -15 -27 -6 0 -6 12 -1 30 10 34
1 37 -40 14z m-50 -71 c0 -13 3 -14 12 -5 19 19 56 14 68 -9 21 -39 -9 -98
-50 -99 -9 0 -11 3 -5 8 6 4 2 15 -12 29 -12 12 -25 18 -28 12 -4 -5 -20 -9
-36 -9 -37 0 -57 35 -40 69 15 28 91 31 91 4z m111 -26 c-10 -9 -11 -8 -5 6 3
10 9 15 12 12 3 -3 0 -11 -7 -18z m-179 -68 c29 -10 44 -18 33 -18 -29 -1 -97
33 -115 55 -14 19 -14 19 8 0 12 -10 46 -27 74 -37z"/>
<path d="M1109 5024 c-9 -11 -10 -20 -3 -32 14 -22 26 -24 47 -8 18 14 18 15
0 35 -21 25 -27 26 -44 5z"/>
<path d="M1206 5017 c-26 -19 -17 -52 14 -52 18 0 26 6 28 21 4 30 -20 47 -42
31z m24 -27 c0 -5 -2 -10 -4 -10 -3 0 -8 5 -11 10 -3 6 -1 10 4 10 6 0 11 -4
11 -10z"/>
<path d="M1340 5079 c-13 -24 -4 -41 10 -19 10 16 13 40 5 40 -2 0 -9 -9 -15
-21z"/>
<path d="M1021 5024 c0 -11 3 -14 6 -6 3 7 2 16 -1 19 -3 4 -6 -2 -5 -13z"/>
<path d="M1280 4908 c0 -19 2 -20 10 -8 13 19 13 30 0 30 -5 0 -10 -10 -10
-22z"/>
<path d="M872 4588 c-19 -24 -52 -97 -52 -115 0 -10 18 -44 39 -77 l39 -59 31
59 c17 33 36 66 43 75 9 13 3 27 -32 72 -45 60 -52 65 -68 45z"/>
<path d="M995 4390 c-32 -33 -57 -61 -54 -64 11 -11 84 -36 104 -36 12 0 30
10 41 21 10 12 38 30 62 41 23 10 42 25 42 32 0 12 -104 66 -127 66 -5 0 -35
-27 -68 -60z"/>
<path d="M725 4331 c-16 -10 -45 -34 -63 -54 l-33 -34 70 -18 c83 -20 95 -15
150 54 l32 40 -30 16 c-40 20 -89 19 -126 -4z"/>
<path d="M916 4219 c-10 -103 -7 -171 15 -300 13 -76 20 -152 17 -196 -2 -40
-3 -73 -1 -73 1 0 18 26 37 58 20 31 44 68 54 80 l18 24 32 -64 c31 -63 80
-128 96 -128 4 0 5 21 2 48 -14 117 -18 202 -9 202 5 0 33 -7 62 -16 29 -8 55
-13 58 -10 11 11 -72 108 -174 202 -64 60 -124 126 -150 167 -24 37 -45 67
-47 67 -2 0 -6 -28 -10 -61z"/>
</g>
</svg>
