<?xml version="1.0" standalone="no"?>
<!DOCTYPE svg PUBLIC "-//W3C//DTD SVG 20010904//EN"
 "http://www.w3.org/TR/2001/REC-SVG-20010904/DTD/svg10.dtd">
<svg version="1.0" xmlns="http://www.w3.org/2000/svg"
 width="86.000000pt" height="291.000000pt" viewBox="0 0 86.000000 291.000000"
 preserveAspectRatio="xMidYMid meet">

<g transform="translate(0.000000,291.000000) scale(0.100000,-0.100000)"
fill="#000000" stroke="none">
<path d="M700 1528 l-1 -1153 -24 -40 c-27 -43 -33 -96 -12 -112 20 -17 85
-35 109 -31 21 4 20 5 -7 12 -105 27 -119 48 -76 118 l31 49 0 1149 c0 755 -3
1151 -10 1155 -7 4 -10 -381 -10 -1147z"/>
<path d="M428 2502 c-34 -138 -39 -194 -17 -208 5 -3 9 -17 9 -32 0 -31 -59
-311 -69 -330 -5 -9 -14 3 -26 35 -10 26 -36 84 -57 128 -60 122 -104 173
-129 148 -13 -13 54 -206 123 -355 l49 -108 -22 -87 c-27 -108 -22 -143 21
-143 24 0 31 6 41 35 7 19 16 32 20 27 4 -4 25 -65 48 -137 59 -183 68 -198
113 -174 29 16 21 42 -73 253 l-81 181 11 111 c7 61 25 175 41 254 26 132 31
145 63 179 38 38 50 76 62 191 3 36 8 83 12 105 10 71 -6 31 -26 -64 -10 -50
-22 -95 -26 -99 -4 -4 -5 27 -2 68 l6 75 -15 -60 c-18 -76 -23 -89 -30 -83 -3
3 0 35 6 71 15 85 7 112 -9 32 -16 -79 -22 -98 -28 -91 -3 2 3 53 12 111 9 59
15 109 13 111 -2 2 -20 -63 -40 -144z"/>
<path d="M521 2574 c0 -11 3 -14 6 -6 3 7 2 16 -1 19 -3 4 -6 -2 -5 -13z"/>
</g>
</svg>
