<?xml version="1.0" standalone="no"?>
<!DOCTYPE svg PUBLIC "-//W3C//DTD SVG 20010904//EN"
 "http://www.w3.org/TR/2001/REC-SVG-20010904/DTD/svg10.dtd">
<svg version="1.0" xmlns="http://www.w3.org/2000/svg"
 width="852.000000pt" height="1280.000000pt" viewBox="0 0 852.000000 1280.000000"
 preserveAspectRatio="xMidYMid meet">
<metadata>
Created by potrace 1.15, written by Peter Selinger 2001-2017
</metadata>
<g transform="translate(0.000000,1280.000000) scale(0.100000,-0.100000)"
fill="#000000" stroke="none">
<path d="M3430 12794 c-30 -2 -131 -8 -225 -14 -671 -44 -1515 -185 -1900
-319 -77 -27 -250 -81 -385 -119 -486 -141 -667 -220 -715 -313 -19 -36 -19
-92 -1 -128 33 -62 155 -147 434 -297 168 -91 141 -69 692 -574 844 -773 1214
-1214 1342 -1599 30 -90 32 -105 32 -246 1 -133 -2 -158 -23 -220 -89 -261
-281 -485 -681 -797 -170 -132 -601 -588 -816 -863 -515 -658 -839 -1371
-1008 -2215 -85 -424 -151 -1017 -172 -1550 -17 -449 56 -930 216 -1410 162
-489 409 -955 718 -1359 36 -47 80 -114 99 -150 55 -108 116 -163 272 -244 56
-30 98 -57 94 -61 -4 -4 0 -4 9 -1 9 4 29 0 45 -9 37 -19 316 -99 453 -131
309 -70 657 -118 1100 -152 315 -23 1080 -23 1420 1 678 47 1275 133 1823 262
l119 28 108 113 c263 273 496 617 666 984 369 797 509 1730 394 2629 -58 456
-170 976 -312 1458 -16 57 -28 105 -26 107 2 2 28 -2 58 -10 147 -39 227 -49
400 -49 140 -1 188 3 240 17 164 46 276 130 337 254 32 65 37 86 41 162 5 108
-9 181 -53 269 -111 220 -340 362 -626 387 l-76 7 -85 167 c-120 231 -133 280
-103 396 30 114 154 295 453 662 150 185 242 335 392 638 111 225 161 346 226
547 156 487 149 911 -22 1251 -111 222 -279 403 -524 563 -104 68 -267 153
-490 257 -80 37 -159 78 -175 91 l-28 23 43 39 c24 21 68 58 98 81 39 31 50
44 39 49 -13 5 -12 12 6 52 16 36 21 67 21 132 0 77 -3 92 -34 155 -47 95
-173 222 -306 309 -546 356 -1585 621 -2829 722 -182 14 -660 26 -775 18z
m2551 -2362 c-10 -19 -5 -20 137 -25 213 -7 366 -53 530 -159 94 -62 261 -228
323 -323 239 -365 301 -827 175 -1300 -98 -366 -309 -726 -628 -1067 -51 -54
-95 -98 -99 -98 -3 0 -33 42 -65 93 -85 135 -224 315 -318 415 -90 95 -140
178 -259 437 -313 679 -380 1161 -213 1545 59 137 137 243 284 390 120 120
164 150 133 92z"/>
</g>
</svg>
