<?xml version="1.0" standalone="no"?>
<!DOCTYPE svg PUBLIC "-//W3C//DTD SVG 20010904//EN"
 "http://www.w3.org/TR/2001/REC-SVG-20010904/DTD/svg10.dtd">
<svg version="1.0" xmlns="http://www.w3.org/2000/svg"
 width="60.000000pt" height="220.000000pt" viewBox="0 0 60.000000 220.000000"
 preserveAspectRatio="xMidYMid meet">

<g transform="translate(0.000000,220.000000) scale(0.100000,-0.100000)"
fill="#000000" stroke="none">
<path d="M518 1985 c-4 -99 -14 -214 -23 -255 -12 -59 -18 -192 -26 -615 -8
-420 -13 -551 -24 -589 -15 -49 -22 -386 -9 -420 9 -25 24 -19 38 15 10 24 12
84 8 260 -3 156 -1 258 8 321 9 67 9 93 1 96 -8 3 -9 110 -5 385 4 305 9 409
25 517 15 101 19 176 17 300 l-3 165 -7 -180z m-61 -1597 c-2 -18 -4 -6 -4 27
0 33 2 48 4 33 2 -15 2 -42 0 -60z m12 -188 c0 -25 -4 -54 -9 -65 -5 -13 -8
18 -8 85 0 82 2 96 9 65 4 -22 8 -60 8 -85z"/>
<path d="M342 1694 c-29 -20 -60 -81 -68 -135 -6 -34 -2 -50 17 -85 l23 -43
-24 -83 c-12 -46 -47 -157 -77 -247 -45 -135 -53 -169 -44 -188 6 -13 17 -23
26 -23 24 0 43 51 60 161 17 105 44 231 71 326 13 44 22 56 54 74 64 36 90
142 56 224 -12 28 -20 35 -43 35 -16 0 -39 -7 -51 -16z"/>
</g>
</svg>
