<?xml version="1.0" standalone="no"?>
<!DOCTYPE svg PUBLIC "-//W3C//DTD SVG 20010904//EN"
 "http://www.w3.org/TR/2001/REC-SVG-20010904/DTD/svg10.dtd">
<svg version="1.0" xmlns="http://www.w3.org/2000/svg"
 width="57.000000pt" height="76.000000pt" viewBox="0 0 57.000000 76.000000"
 preserveAspectRatio="xMidYMid meet">

<g transform="translate(0.000000,76.000000) scale(0.100000,-0.100000)"
fill="#000000" stroke="none">
<path d="M140 678 c-26 -44 -25 -60 7 -109 24 -37 29 -39 38 -24 5 10 20 33
33 53 l23 35 -28 35 c-39 48 -49 49 -73 10z"/>
<path d="M249 564 c-36 -37 -41 -46 -29 -54 31 -21 64 -23 89 -7 14 10 39 23
54 29 38 17 30 37 -24 58 l-46 19 -44 -45z"/>
<path d="M28 502 c-40 -37 -33 -58 23 -67 41 -7 45 -5 77 30 33 36 34 39 17
52 -32 22 -81 16 -117 -15z"/>
<path d="M190 368 c0 -57 5 -123 11 -148 6 -25 11 -78 12 -117 1 -40 5 -73 8
-73 3 0 15 17 27 39 37 66 48 68 71 19 24 -54 57 -95 67 -85 4 4 3 37 -3 74
-12 80 -7 107 16 98 37 -15 71 -17 71 -6 0 7 -52 63 -115 126 -63 63 -121 128
-130 145 -27 52 -35 35 -35 -72z"/>
</g>
</svg>
