<?xml version="1.0" standalone="no"?>
<!DOCTYPE svg PUBLIC "-//W3C//DTD SVG 20010904//EN"
 "http://www.w3.org/TR/2001/REC-SVG-20010904/DTD/svg10.dtd">
<svg version="1.0" xmlns="http://www.w3.org/2000/svg"
 width="540.000000pt" height="441.000000pt" viewBox="0 0 540.000000 441.000000"
 preserveAspectRatio="xMidYMid meet">

<g transform="translate(0.000000,441.000000) scale(0.100000,-0.100000)"
fill="#000000" stroke="none">
<path d="M1275 4321 c-148 -67 -149 -279 -3 -350 57 -27 113 -27 168 2 85 43
124 125 106 222 -8 43 -68 113 -113 132 -45 18 -110 16 -158 -6z m183 -102
c18 -6 29 -15 26 -20 -3 -5 0 -9 5 -9 6 0 11 -20 11 -44 l0 -44 -51 -11 c-28
-6 -55 -8 -60 -5 -6 3 -15 1 -22 -4 -7 -5 -27 -12 -45 -15 l-32 -7 4 48 c2 26
4 50 5 54 2 14 86 68 106 68 12 0 36 -5 53 -11z"/>
<path d="M1415 4210 c-3 -5 1 -10 10 -10 9 0 13 5 10 10 -3 6 -8 10 -10 10 -2
0 -7 -4 -10 -10z"/>
<path d="M1438 4183 c7 -3 16 -2 19 1 4 3 -2 6 -13 5 -11 0 -14 -3 -6 -6z"/>
<path d="M1388 4173 c7 -3 16 -2 19 1 4 3 -2 6 -13 5 -11 0 -14 -3 -6 -6z"/>
<path d="M1338 4163 c7 -3 16 -2 19 1 4 3 -2 6 -13 5 -11 0 -14 -3 -6 -6z"/>
<path d="M1456 4163 c-11 -11 -6 -23 9 -23 8 0 15 4 15 9 0 13 -16 22 -24 14z"/>
<path d="M1356 4141 c-4 -5 -2 -12 3 -15 5 -4 12 -2 15 3 4 5 2 12 -3 15 -5 4
-12 2 -15 -3z"/>
<path d="M1410 4114 c0 -8 5 -12 10 -9 6 3 10 10 10 16 0 5 -4 9 -10 9 -5 0
-10 -7 -10 -16z"/>
<path d="M2307 4309 c-14 -20 -28 -28 -64 -32 -25 -3 -77 -21 -116 -41 -65
-34 -71 -36 -91 -21 -99 73 -107 76 -141 51 -16 -12 -20 -29 -23 -98 -4 -73
-7 -85 -28 -103 -16 -13 -27 -37 -33 -68 -5 -26 -11 -50 -14 -53 -11 -11 -45
16 -51 41 -6 22 -12 25 -49 25 -23 1 -53 7 -67 15 -14 8 -28 14 -31 15 -4 0
-21 -28 -39 -62 -30 -59 -137 -224 -178 -277 -11 -13 -24 -21 -30 -17 -6 3
-41 51 -78 106 -37 55 -70 100 -73 100 -3 0 -21 -26 -40 -58 -19 -31 -61 -95
-94 -141 l-61 -84 -23 29 c-72 87 -209 319 -236 397 -5 17 -74 -17 -99 -48
-23 -30 -83 -40 -137 -24 -36 11 -44 10 -57 -3 -13 -13 -14 -19 -3 -36 19 -30
6 -37 -32 -18 -18 9 -33 15 -34 14 0 -2 -6 -15 -13 -30 -10 -24 -17 -28 -54
-28 -60 0 -117 -18 -143 -44 -18 -18 -25 -40 -30 -92 -4 -38 -16 -91 -26 -117
-19 -48 -18 -88 4 -115 7 -9 4 -18 -11 -33 -12 -11 -22 -25 -22 -32 0 -24 25
-47 56 -53 24 -5 37 0 63 22 32 27 33 27 67 11 49 -24 82 -21 168 13 95 38
150 44 154 15 1 -11 -9 -36 -23 -54 -30 -42 -22 -51 46 -51 33 0 51 5 64 20
20 23 55 26 73 8 10 -10 8 -16 -9 -29 -25 -19 -18 -39 14 -39 13 0 30 -9 40
-20 19 -22 42 -26 53 -9 3 6 30 22 58 35 173 80 365 -41 366 -232 0 -50 -7
-74 -38 -140 -44 -90 -93 -169 -165 -267 -41 -56 -52 -65 -64 -55 -24 19 -158
227 -196 303 -50 100 -60 145 -47 208 6 29 19 65 30 82 36 55 -14 71 -113 36
-56 -19 -90 -15 -100 13 -5 12 -20 16 -57 16 -43 0 -50 3 -50 20 0 24 -13 26
-30 5 -7 -8 -19 -15 -27 -15 -15 0 -15 12 2 68 4 12 3 22 -2 22 -23 0 -45 -29
-50 -68 -6 -42 -7 -43 -35 -36 -47 10 -32 -27 20 -51 25 -12 40 -25 37 -32
-11 -29 -27 -145 -21 -151 13 -13 42 15 71 71 36 68 50 71 128 28 28 -16 76
-36 105 -46 40 -13 56 -24 68 -48 20 -38 21 -115 2 -153 -12 -26 -18 -29 -58
-27 -146 8 -190 6 -337 -10 -190 -21 -225 -30 -221 -61 4 -27 92 -71 186 -92
101 -24 119 -33 161 -81 52 -58 120 -190 127 -246 6 -41 4 -48 -22 -72 -35
-33 -24 -59 27 -63 19 -1 59 -9 89 -18 86 -25 109 -18 143 42 49 85 93 100
191 63 70 -27 86 -21 86 30 0 22 5 43 11 47 25 15 109 -98 109 -147 0 -11 15
-36 33 -54 42 -42 112 -56 162 -32 32 15 33 15 61 -14 29 -30 92 -58 180 -78
62 -15 86 -35 119 -102 14 -27 33 -53 42 -56 8 -3 38 0 66 7 38 9 52 10 55 1
2 -6 18 -11 35 -11 36 0 47 -7 63 -35 6 -11 27 -29 47 -40 20 -11 45 -35 56
-55 11 -19 36 -51 57 -69 l36 -35 -7 -114 c-7 -123 -2 -142 41 -142 l23 0 -19
43 c-19 41 -29 175 -14 190 4 4 20 -3 35 -14 27 -19 90 -31 150 -30 15 1 32
-6 39 -14 14 -17 40 -20 40 -5 0 6 -7 22 -16 36 -27 40 -3 53 36 20 37 -31 60
-33 67 -7 6 23 44 41 104 48 56 7 92 -13 108 -59 17 -47 13 -66 -15 -95 -24
-24 -28 -25 -39 -10 -9 13 -28 17 -73 17 -50 0 -66 4 -90 25 -37 31 -42 31
-42 0 0 -15 9 -31 24 -41 14 -8 34 -31 45 -50 32 -53 56 -60 169 -45 53 7 112
17 131 22 46 11 218 -7 248 -26 31 -21 29 -35 -5 -35 -34 0 -52 -16 -52 -47 0
-17 10 -28 38 -41 48 -22 52 -55 7 -60 -16 -2 -39 -12 -50 -22 -11 -9 -30 -23
-42 -29 -30 -15 -29 -32 2 -69 30 -36 32 -61 5 -95 -27 -34 -26 -40 19 -71 42
-30 121 -47 121 -27 0 24 59 10 117 -29 69 -47 80 -46 152 14 73 61 97 69 196
70 74 1 90 -2 90 -14 0 -15 -84 -42 -167 -55 -46 -7 -56 -33 -39 -100 22 -89
11 -125 -40 -125 -30 0 -54 -23 -46 -43 3 -8 47 -28 99 -46 51 -18 110 -43
130 -57 41 -26 152 -154 184 -212 16 -30 31 -41 74 -55 30 -10 60 -27 67 -37
8 -11 31 -22 56 -25 56 -9 60 -12 78 -60 17 -45 38 -55 157 -76 96 -16 148 -5
145 31 -2 39 -11 97 -24 172 -9 51 -9 74 -1 93 15 33 57 43 82 20 17 -15 20
-31 20 -99 0 -108 4 -112 68 -90 84 30 87 34 87 122 l0 77 41 -3 c39 -3 41 -2
56 37 9 23 23 41 31 41 8 0 45 -25 83 -55 77 -62 107 -68 112 -21 2 16 -2 40
-9 53 -16 30 -69 63 -102 63 -14 0 -28 4 -32 10 -11 17 23 77 59 105 34 26 36
31 36 84 0 79 -16 105 -65 109 -51 4 -63 15 -76 67 -9 36 -16 44 -40 49 -46 9
-34 30 35 64 87 42 133 51 299 59 160 7 182 12 199 48 10 22 8 33 -10 70 -12
25 -25 63 -28 85 -5 33 -11 41 -33 46 -14 3 -34 9 -43 15 -10 5 -49 9 -87 9
-77 0 -101 13 -101 57 0 15 -7 34 -15 43 -14 15 -14 18 0 30 13 11 26 11 69 0
43 -10 57 -10 77 0 42 23 63 60 33 60 -9 0 -29 11 -46 25 -16 14 -40 25 -53
25 -32 0 -51 22 -60 67 -10 56 -32 93 -81 139 l-43 41 5 69 c5 55 14 82 44
134 51 89 85 157 100 205 7 22 21 52 32 68 18 25 25 27 83 27 61 0 65 1 71 26
4 16 -11 130 -35 274 -26 154 -39 259 -35 276 4 16 17 50 30 76 28 55 29 74
10 183 -13 69 -13 83 1 108 18 35 9 118 -15 146 -23 25 -87 48 -160 57 -57 6
-62 5 -88 -21 -15 -15 -43 -34 -63 -42 -20 -9 -53 -33 -73 -55 -50 -54 -82
-49 -102 15 -3 9 -15 17 -28 17 -19 1 -30 16 -60 78 -21 43 -38 92 -38 110 0
36 -37 108 -59 117 -7 3 -39 -4 -70 -16 -80 -30 -229 -32 -269 -2 -33 24 -38
56 -18 121 26 89 0 96 -142 40 -84 -33 -104 -94 -57 -182 25 -46 33 -110 16
-120 -10 -6 -51 95 -51 126 0 50 -53 88 -125 88 -29 0 -44 -8 -75 -40 -40 -41
-78 -52 -97 -27 -6 6 -16 29 -22 50 -13 39 -30 47 -51 22 -7 -8 -21 -15 -32
-15 -21 0 -21 8 -3 67 11 36 -19 39 -81 7 -49 -25 -58 -26 -88 -16 -49 18 -56
15 -56 -21 0 -40 -20 -61 -71 -75 -20 -5 -74 -40 -120 -76 -113 -90 -150 -98
-162 -36 -5 20 -27 51 -66 88 -52 50 -60 63 -66 107 -10 68 -25 95 -91 153
-48 43 -56 56 -61 93 -7 57 -18 69 -59 69 -44 0 -61 28 -40 69 17 32 13 41
-18 41 -12 0 -32 7 -45 16 -19 14 -22 22 -16 50 9 49 -13 53 -96 14 -39 -18
-73 -29 -76 -26 -3 3 -9 23 -12 43 l-7 38 -17 -26z m-112 -831 c97 -48 150
-138 143 -243 -5 -75 -54 -176 -171 -348 l-81 -120 -23 29 c-46 56 -151 220
-186 289 -69 137 -72 199 -14 296 68 113 214 156 332 97z m-212 -669 c23 -12
56 -37 74 -55 31 -33 32 -33 67 -19 19 8 61 15 93 15 100 -1 182 -52 227 -142
60 -121 20 -242 -167 -506 -47 -67 -61 -81 -73 -72 -17 15 -145 204 -168 248
l-17 34 -61 -89 c-93 -138 -84 -133 -134 -64 -128 177 -205 324 -212 408 -16
191 197 330 371 242z m1166 -578 c88 -45 144 -135 145 -231 1 -82 -75 -235
-206 -413 l-50 -67 -33 43 c-61 80 -144 214 -185 297 -32 68 -40 95 -40 139 1
188 204 316 369 232z"/>
<path d="M2005 3422 c-79 -38 -115 -96 -115 -186 0 -103 86 -186 191 -186 153
1 241 156 166 292 -45 83 -158 120 -242 80z m153 -89 c6 -16 13 -57 15 -91 7
-91 -5 -102 -121 -102 -49 0 -92 3 -95 7 -9 9 43 63 60 63 9 0 13 16 13 56 0
80 10 94 69 94 44 0 50 -3 59 -27z"/>
<path d="M2046 3328 c-3 -13 -6 -45 -6 -73 1 -62 33 -109 71 -103 23 3 24 6
27 101 l3 97 -44 0 c-38 0 -46 -3 -51 -22z m44 -48 c-13 -8 -12 -10 3 -10 12
0 17 -8 17 -30 0 -16 -4 -30 -10 -30 -5 0 -10 11 -10 25 0 14 -4 25 -9 25 -4
0 -6 -12 -3 -26 3 -19 1 -25 -7 -20 -16 10 -10 58 9 73 8 6 17 9 20 7 2 -3 -2
-9 -10 -14z"/>
<path d="M2069 2976 c-8 -8 3 -96 12 -96 5 0 9 23 9 50 0 44 -7 60 -21 46z"/>
<path d="M1808 2760 c-68 -20 -138 -111 -138 -180 0 -119 100 -209 220 -198
154 15 228 209 122 322 -52 55 -133 78 -204 56z m112 -76 c0 -9 9 -29 20 -45
18 -24 20 -41 18 -111 l-3 -83 -90 0 -90 0 -3 88 c-2 66 1 93 13 109 8 13 15
30 15 40 0 15 9 18 60 18 48 0 60 -3 60 -16z"/>
<path d="M1843 2673 c15 -2 37 -2 50 0 12 2 0 4 -28 4 -27 0 -38 -2 -22 -4z"/>
<path d="M1830 2640 c0 -5 21 -10 46 -10 27 0 43 4 39 10 -3 6 -24 10 -46 10
-21 0 -39 -4 -39 -10z"/>
<path d="M1797 2633 c-4 -3 -7 -44 -7 -90 0 -76 2 -83 20 -83 18 0 20 7 20 79
0 53 -4 82 -13 90 -8 6 -17 8 -20 4z"/>
<path d="M1850 2535 l0 -75 45 0 45 0 0 75 0 75 -45 0 -45 0 0 -75z m63 18
c-7 -2 -21 -2 -30 0 -10 3 -4 5 12 5 17 0 24 -2 18 -5z m2 -33 c-3 -5 -15 -10
-26 -10 -10 0 -19 5 -19 10 0 6 12 10 26 10 14 0 23 -4 19 -10z"/>
<path d="M2164 2678 l-41 -9 1 -77 c1 -68 -3 -84 -32 -141 -17 -34 -32 -69
-32 -77 0 -21 62 -62 110 -73 89 -20 174 21 215 103 14 28 25 61 25 75 0 131
-119 227 -246 199z m153 -166 c-6 -51 -29 -87 -78 -120 -26 -18 -44 -22 -86
-20 -37 2 -53 7 -53 17 0 20 31 40 60 41 59 0 99 57 95 135 -1 38 2 51 14 56
25 10 54 -56 48 -109z"/>
<path d="M1857 2303 l23 -4 -20 -39 c-29 -58 -9 -57 22 1 l26 49 -37 -1 c-23
-1 -28 -3 -14 -6z"/>
<path d="M2204 2185 c-34 -50 -37 -55 -19 -49 9 4 21 -1 29 -11 18 -25 26 -2
17 50 l-6 40 -21 -30z"/>
<path d="M2955 2171 c-201 -93 -116 -390 105 -369 117 12 198 138 160 252 -36
110 -161 165 -265 117z m95 -72 c0 -28 4 -58 9 -67 4 -9 11 -29 15 -44 6 -27
5 -28 -39 -28 -51 0 -53 5 -30 70 8 23 15 60 15 81 0 28 4 39 15 39 11 0 15
-12 15 -51z m6 -198 c-9 -14 -33 -14 -41 -1 -4 6 -1 18 6 26 11 13 14 13 27 0
8 -8 11 -19 8 -25z m14 -41 c0 -5 -15 -10 -34 -10 -19 0 -38 5 -41 10 -4 6 10
10 34 10 23 0 41 -4 41 -10z"/>
<path d="M3017 1728 c-9 -5 -17 -14 -17 -20 0 -7 6 -6 15 2 9 7 19 9 23 5 4
-4 1 -10 -5 -12 -18 -6 -16 -23 2 -23 18 0 20 -16 4 -26 -6 -3 -15 0 -20 7 -4
7 -12 10 -16 5 -4 -4 1 -14 11 -21 27 -20 60 -1 52 28 -3 12 -6 29 -6 38 0 21
-21 30 -43 17z"/>
<path d="M950 4269 c-160 -47 -190 -264 -48 -352 73 -46 175 -36 236 23 13 12
21 27 18 34 -53 118 -58 141 -53 207 6 66 5 67 -21 78 -44 17 -95 21 -132 10z
m99 -85 c81 -68 51 -214 -44 -214 -95 0 -127 130 -50 207 40 40 54 41 94 7z"/>
<path d="M1035 4140 c-8 -13 4 -50 16 -50 5 0 9 14 9 30 0 30 -13 40 -25 20z"/>
<path d="M1336 3868 c-9 -35 -7 -41 9 -35 17 7 29 -8 19 -24 -4 -8 -9 -8 -17
0 -16 16 -27 13 -20 -5 9 -24 57 -14 61 14 2 13 -3 25 -12 28 -20 8 -21 24 -1
24 8 0 15 5 15 10 0 6 -11 10 -24 10 -16 0 -26 -7 -30 -22z"/>
<path d="M984 3775 c-17 -31 -17 -36 -3 -50 9 -9 23 -13 32 -9 18 7 24 54 6
54 -6 0 -8 9 -4 20 10 33 -10 23 -31 -15z m28 -30 c0 -5 -5 -11 -11 -13 -6 -2
-11 4 -11 13 0 9 5 15 11 13 6 -2 11 -8 11 -13z"/>
<path d="M985 3250 c-99 -23 -155 -94 -155 -195 0 -72 37 -133 100 -165 105
-52 214 -18 265 84 30 59 31 106 6 161 -21 46 -80 102 -116 110 -55 11 -71 12
-100 5z m133 -147 c17 -11 30 -22 27 -25 -3 -3 1 -11 10 -18 23 -19 18 -28
-24 -41 -22 -6 -44 -21 -49 -33 l-11 -21 -7 23 c-5 18 -13 22 -51 22 -48 0
-87 -15 -78 -31 4 -5 1 -9 -4 -9 -6 0 -11 6 -12 13 -1 6 -2 19 -3 27 -2 8 -3
23 -4 33 -1 10 -7 15 -13 11 -7 -4 -9 2 -7 16 2 14 17 31 38 42 45 25 140 20
188 -9z"/>
<path d="M1000 2795 c-7 -9 -9 -19 -5 -23 4 -4 10 -1 12 6 5 14 33 17 33 3 0
-5 -7 -14 -16 -21 -8 -8 -20 -22 -25 -32 -9 -16 -6 -18 28 -17 31 0 35 2 21
11 -14 11 -15 14 -1 35 12 19 13 26 3 38 -16 19 -34 19 -50 0z"/>
</g>
</svg>
