<?xml version="1.0" standalone="no"?>
<!DOCTYPE svg PUBLIC "-//W3C//DTD SVG 20010904//EN"
 "http://www.w3.org/TR/2001/REC-SVG-20010904/DTD/svg10.dtd">
<svg version="1.0" xmlns="http://www.w3.org/2000/svg"
 width="339.000000pt" height="381.000000pt" viewBox="0 0 339.000000 381.000000"
 preserveAspectRatio="xMidYMid meet">

<g transform="translate(0.000000,381.000000) scale(0.100000,-0.100000)"
fill="#000000" stroke="none">
<path d="M1895 3452 l-380 -348 -96 -16 c-203 -36 -432 -137 -601 -263 -76
-57 -89 -64 -120 -59 -43 7 -62 -13 -56 -58 5 -28 -2 -40 -44 -88 -157 -174
-288 -442 -329 -673 -7 -37 -15 -67 -19 -67 -4 0 -12 93 -19 206 -6 114 -16
215 -21 225 -14 25 -43 32 -110 24 -66 -8 -94 -29 -92 -72 0 -16 30 -291 67
-613 65 -575 66 -585 91 -607 17 -16 20 -23 10 -23 -17 0 -30 -16 -22 -28 2
-4 7 -111 10 -237 9 -431 17 -533 39 -562 19 -24 24 -25 86 -20 82 7 100 14
111 43 10 25 -63 642 -79 679 -13 28 -23 75 -22 108 0 21 -5 27 -20 27 -19 0
-19 2 -5 21 12 18 14 46 10 143 l-5 121 30 -85 c63 -183 129 -305 247 -456
l74 -94 -51 0 c-40 0 -55 -5 -74 -25 -14 -13 -25 -33 -25 -45 0 -61 67 -148
143 -187 45 -22 58 -24 117 -19 l66 7 179 -134 c99 -73 212 -160 250 -194 81
-69 135 -94 159 -74 24 20 19 54 -11 83 -16 14 -80 53 -143 88 -124 67 -384
236 -413 268 -11 12 -17 31 -15 46 l3 26 65 -46 c141 -99 352 -184 545 -220
146 -28 403 -25 542 4 264 57 503 179 687 353 l81 75 60 -18 c32 -10 65 -16
72 -14 19 8 5 96 -19 122 -19 22 -19 22 15 70 57 80 98 153 144 259 25 55 42
89 38 75 -26 -109 -15 -160 35 -160 49 0 65 53 85 285 12 141 62 448 86 521 5
17 23 41 40 53 41 30 46 49 69 228 21 165 25 223 11 188 -4 -11 -18 -73 -31
-137 -12 -65 -26 -118 -30 -118 -4 0 2 57 12 127 10 70 17 132 15 137 -2 6
-16 -51 -32 -124 -15 -74 -32 -139 -37 -145 -6 -6 -7 -1 -4 15 13 61 37 241
34 256 -2 10 -16 -45 -33 -122 -35 -167 -45 -154 -15 21 12 70 19 129 16 132
-6 7 -27 -67 -67 -244 l-32 -141 20 -47 20 -47 -43 -207 c-50 -239 -67 -299
-56 -201 4 36 7 146 6 245 -1 142 -5 199 -21 269 -20 88 -20 89 -1 108 23 23
21 39 -24 146 l-30 74 -37 -34 c-20 -18 -52 -48 -73 -67 l-36 -33 33 -47 c101
-143 113 -252 49 -447 -21 -64 -28 -110 -35 -244 -10 -186 -24 -252 -75 -359
-48 -102 -117 -192 -232 -302 -225 -216 -363 -277 -670 -300 -362 -27 -665 10
-896 107 -200 84 -447 281 -512 407 -9 16 -31 44 -49 63 -45 44 -59 93 -50
163 11 80 11 111 -3 251 -16 171 -24 397 -12 345 5 -22 9 -83 10 -135 1 -113
14 -96 24 33 4 49 11 98 17 110 8 18 8 16 5 -13 -15 -117 -28 -365 -22 -423
l8 -67 47 42 c44 40 47 45 38 71 -15 46 -3 124 24 153 54 58 112 68 204 33 51
-19 55 -23 55 -53 0 -18 -3 -35 -6 -39 -3 -3 -26 5 -51 19 -60 31 -107 31
-138 -1 -46 -45 -32 -82 109 -297 31 -49 61 -88 65 -88 15 0 32 28 57 87 21
53 25 58 51 55 15 -2 30 -6 32 -8 10 -9 -26 -90 -61 -141 -21 -29 -38 -57 -38
-61 0 -4 11 -23 23 -42 13 -19 32 -48 42 -63 l18 -28 -44 7 c-41 6 -67 24 -88
61 -6 12 -15 10 -52 -9 -32 -17 -61 -23 -106 -23 -35 0 -63 -3 -63 -6 0 -4 19
-33 43 -65 93 -127 205 -203 382 -262 292 -97 837 -158 1063 -118 178 31 326
107 428 219 29 33 54 64 54 68 0 4 -25 -3 -55 -17 -154 -71 -349 -41 -460 71
-23 23 -57 73 -76 111 -33 67 -34 71 -34 194 0 107 4 133 23 182 62 154 230
251 408 235 191 -18 323 -148 356 -351 l13 -78 97 228 c130 307 140 336 142
419 1 62 -5 87 -48 201 l-49 131 -44 -5 c-48 -5 -50 -2 -27 34 15 23 15 26 0
43 -23 25 -20 38 4 16 31 -29 34 -12 6 44 -14 28 -26 57 -26 66 0 11 -11 15
-40 15 l-40 0 -2 -262 -3 -263 -70 0 -70 0 -3 38 c-3 34 -1 37 22 37 l26 0 0
225 0 225 -55 0 c-42 0 -55 -3 -55 -15 0 -11 -12 -15 -46 -15 l-45 0 3 53 3
52 253 3 252 2 0 -40 0 -40 -60 0 c-35 0 -60 -4 -60 -10 0 -10 37 -89 47 -100
2 -2 14 8 26 23 18 22 33 28 85 34 34 3 62 7 62 7 0 1 -22 52 -49 113 -69 155
-103 258 -108 328 -7 95 -97 305 -170 402 -27 35 -60 43 -70 17 -8 -22 66
-237 140 -404 76 -175 119 -281 114 -287 -3 -2 -26 26 -52 63 -61 85 -189 214
-280 283 -43 32 -165 157 -317 324 -137 149 -248 274 -248 278 0 3 75 75 168
159 92 84 169 159 170 167 4 16 -25 53 -42 53 -6 0 -182 -157 -391 -348z m243
-276 c100 -110 180 -201 178 -203 -2 -2 -29 8 -61 21 -143 64 -322 105 -494
115 l-114 6 144 132 c79 73 149 131 155 130 6 -1 92 -92 192 -201z m-323 -200
c73 -18 331 -113 406 -151 125 -63 442 -276 421 -283 -6 -2 -37 17 -70 42
-114 87 -257 178 -357 227 -55 27 -104 49 -110 49 -5 0 14 -21 43 -46 62 -54
245 -264 237 -272 -3 -3 -22 14 -43 39 -257 303 -304 331 -603 361 -92 9 -146
9 -241 0 -224 -23 -331 -62 -483 -177 -129 -98 -305 -285 -305 -324 0 -5 21
-16 47 -24 39 -13 49 -13 57 -2 6 7 30 16 54 20 l42 7 0 -141 0 -141 -50 0
-50 0 0 38 c0 84 -57 143 -141 148 -62 3 -94 -11 -137 -61 -97 -110 -66 -320
55 -371 100 -43 209 14 216 114 2 26 1 27 -60 30 l-63 3 0 34 0 35 135 0 135
0 0 -40 c0 -33 -3 -40 -20 -40 -19 0 -20 -7 -20 -120 l0 -120 -46 0 c-37 0
-47 4 -51 19 -5 19 -6 19 -50 -1 -55 -24 -163 -27 -215 -5 -51 21 -110 78
-136 130 -71 142 -36 338 74 423 23 17 108 100 188 185 152 159 203 199 343
265 144 68 387 150 481 163 84 12 238 5 317 -13z m-508 -558 c10 -14 243 -579
243 -591 0 -4 -40 -7 -90 -7 l-90 0 0 40 c0 36 2 40 26 40 28 0 29 -3 -4 78
l-17 42 -118 -2 -118 -3 -43 -95 -43 -95 -56 -3 -57 -3 0 41 c0 35 3 40 23 40
16 0 28 9 36 28 14 29 187 442 202 480 7 18 16 22 53 22 24 0 48 -6 53 -12z
m381 -255 l2 -263 55 0 c42 0 55 3 55 15 0 11 12 15 45 15 l45 0 0 -55 0 -55
-150 0 -150 0 0 265 0 265 -25 0 c-23 0 -25 4 -25 40 l0 41 73 -3 72 -3 3
-262z m509 232 c-4 -8 -2 -17 4 -21 6 -3 13 5 16 17 6 23 7 23 14 -5 5 -16 5
-42 2 -59 -5 -27 -4 -29 8 -17 8 7 16 27 17 44 3 38 6 40 31 26 12 -6 21 -21
22 -33 0 -18 2 -19 7 -5 6 15 11 13 38 -15 17 -18 37 -43 44 -56 12 -23 10
-27 -26 -58 -21 -18 -49 -36 -61 -39 -13 -3 -23 -10 -23 -14 0 -4 -13 -13 -29
-18 l-28 -10 10 41 c5 23 14 46 18 52 30 32 -16 75 -79 75 -35 0 -43 3 -38 15
3 8 1 15 -5 15 -6 0 -13 -9 -16 -20 -3 -11 -11 -20 -19 -20 -19 0 -79 -55
-103 -93 -30 -50 -31 -80 -1 -87 15 -4 30 -1 38 7 7 7 29 15 50 19 20 4 40 12
44 18 4 6 8 -4 8 -21 0 -23 5 -33 15 -33 12 0 13 4 4 19 -10 14 -9 23 4 42
l17 23 0 -28 c0 -21 4 -27 15 -22 8 3 15 2 15 -2 0 -11 -20 -38 -20 -28 0 5
-9 1 -20 -9 -11 -10 -20 -15 -20 -11 0 3 -22 -5 -49 -19 -27 -15 -59 -27 -70
-28 -27 -2 -26 -8 1 -43 13 -15 22 -37 21 -49 -1 -15 -1 -16 3 -2 7 23 25 22
31 -3 4 -16 9 -18 24 -10 17 9 18 6 17 -36 0 -30 -4 -41 -9 -33 -7 11 -9 9 -9
-6 0 -15 -2 -17 -9 -6 -6 9 -10 10 -13 1 -6 -18 -49 -3 -94 33 -33 26 -39 36
-33 52 6 17 8 17 8 3 1 -10 5 -18 10 -18 5 0 7 9 4 20 -3 11 -12 20 -20 20
-10 0 -12 6 -8 21 5 15 4 19 -4 15 -7 -5 -11 2 -11 16 0 19 2 20 10 8 15 -22
5 34 -10 57 -10 16 -11 15 -6 -7 7 -34 -4 -77 -15 -58 -7 10 -9 9 -9 -4 0 -10
5 -18 10 -18 6 0 10 -10 10 -22 0 -18 -5 -14 -25 21 -29 49 -32 73 -10 65 17
-7 18 -3 9 20 -5 13 -9 14 -20 5 -17 -14 -19 2 -2 19 9 9 9 12 0 12 -7 0 -12
5 -12 11 0 5 5 7 10 4 6 -3 10 4 10 17 0 18 -2 20 -10 8 -8 -12 -10 -11 -10 8
0 12 5 22 10 22 6 0 10 14 10 30 0 17 3 30 8 30 4 0 13 13 20 29 9 20 18 28
28 24 9 -3 12 0 9 9 -7 18 51 65 110 90 52 22 140 24 132 3z m217 -361 c3 -9
6 -23 6 -32 0 -15 -2 -15 -11 -2 -8 12 -9 10 -4 -8 5 -17 -1 -35 -21 -64 l-28
-40 -8 31 c-9 33 -20 42 -17 14 3 -34 -1 -41 -21 -36 -16 4 -20 0 -20 -21 0
-14 -3 -26 -7 -27 -5 0 -16 -2 -25 -4 -12 -2 -18 3 -18 16 0 10 -6 19 -12 20
-10 0 -10 2 0 6 6 2 12 14 12 26 0 12 10 42 22 67 13 25 23 46 23 47 0 1 23 5
50 8 28 4 52 9 54 11 9 8 19 3 25 -12z m-204 -135 c0 -32 -3 -39 -20 -39 -13
0 -20 -7 -20 -20 0 -24 -15 -27 -24 -4 -3 9 -2 12 5 8 14 -8 8 38 -6 49 -6 4
-4 11 5 17 8 5 11 10 7 10 -20 0 4 15 27 16 24 2 26 -1 26 -37z m-327 -506 l5
-173 -62 0 -62 0 -13 62 c-26 129 -137 185 -280 142 -185 -54 -246 -309 -116
-480 38 -50 116 -84 192 -84 105 0 171 46 204 142 l18 53 60 3 61 3 0 -39 c0
-108 -83 -219 -195 -261 -81 -31 -198 -32 -275 -2 -112 43 -214 148 -245 255
-44 146 6 351 108 443 66 59 138 87 242 91 84 3 112 -1 212 -33 18 -6 21 -4
16 13 -4 18 3 22 59 34 34 8 64 12 65 9 1 -3 3 -84 6 -178z m1214 -35 c-3 -8
-6 -5 -6 6 -1 11 2 17 5 13 3 -3 4 -12 1 -19z m-2869 -375 c-10 -2 -26 -2 -35
0 -10 3 -2 5 17 5 19 0 27 -2 18 -5z"/>
<path d="M1441 2965 c-80 -18 -90 -27 -20 -17 67 9 312 9 399 0 l65 -6 -45 15
c-65 22 -315 27 -399 8z"/>
<path d="M988 2796 c-153 -78 -232 -146 -245 -209 -5 -23 -8 -27 -12 -14 -5
14 -23 1 -86 -63 -43 -43 -77 -81 -74 -83 2 -2 29 -1 59 1 55 4 56 4 80 50 31
57 200 227 303 304 43 32 75 58 70 58 -5 0 -48 -20 -95 -44z"/>
<path d="M1220 2198 c-18 -40 -35 -79 -37 -85 -4 -10 14 -13 71 -13 42 0 76 3
76 8 1 13 -65 162 -71 162 -4 0 -21 -33 -39 -72z"/>
<path d="M2190 2339 c0 -5 5 -7 10 -4 6 3 10 8 10 11 0 2 -4 4 -10 4 -5 0 -10
-5 -10 -11z"/>
<path d="M2316 2314 c-17 -12 -17 -14 -4 -14 9 0 20 5 23 11 11 17 2 18 -19 3z"/>
<path d="M1943 2205 c0 -22 2 -30 4 -17 2 12 2 30 0 40 -3 9 -5 -1 -4 -23z"/>
<path d="M1902 2190 c0 -14 2 -19 5 -12 2 6 2 18 0 25 -3 6 -5 1 -5 -13z"/>
<path d="M2262 2193 c5 -24 27 -28 25 -4 -1 12 -7 21 -15 21 -7 0 -12 -8 -10
-17z"/>
<path d="M1941 2123 c-1 -12 4 -25 9 -28 12 -7 12 2 0 30 -8 19 -9 19 -9 -2z"/>
<path d="M1971 1984 c0 -11 3 -14 6 -6 3 7 2 16 -1 19 -3 4 -6 -2 -5 -13z"/>
<path d="M2010 1910 c0 -5 5 -10 11 -10 5 0 7 5 4 10 -3 6 -8 10 -11 10 -2 0
-4 -4 -4 -10z"/>
<path d="M2331 2004 c0 -11 3 -14 6 -6 3 7 2 16 -1 19 -3 4 -6 -2 -5 -13z"/>
<path d="M2306 1951 c-4 -7 -5 -15 -2 -18 9 -9 19 4 14 18 -4 11 -6 11 -12 0z"/>
<path d="M2172 1895 c0 -16 2 -22 5 -12 2 9 2 23 0 30 -3 6 -5 -1 -5 -18z"/>
<path d="M1271 3236 c-16 -19 2 -56 28 -56 28 0 47 28 34 48 -13 22 -47 27
-62 8z"/>
<path d="M765 3130 c-3 -5 -3 -19 0 -31 10 -31 60 -23 60 11 0 20 -6 26 -27
28 -14 2 -29 -2 -33 -8z"/>
<path d="M432 2747 c-30 -31 -30 -89 0 -117 49 -46 138 -8 138 60 0 69 -91
107 -138 57z"/>
<path d="M250 2675 c-18 -22 -1 -50 31 -50 20 0 24 5 24 30 0 23 -5 31 -21 33
-11 2 -27 -4 -34 -13z"/>
<path d="M74 2639 c-9 -15 12 -33 30 -26 9 4 16 13 16 22 0 17 -35 21 -46 4z"/>
<path d="M3072 2618 c-29 -29 -3 -72 40 -66 19 2 23 9 23 38 0 30 -4 35 -25
38 -14 2 -31 -3 -38 -10z"/>
<path d="M3194 2605 c-7 -18 3 -35 21 -35 15 0 24 19 18 38 -6 17 -32 15 -39
-3z"/>
<path d="M292 2528 c-18 -18 -14 -46 7 -58 38 -20 71 13 51 51 -12 21 -40 25
-58 7z"/>
<path d="M2930 2068 c0 -2 16 -46 35 -98 29 -78 35 -87 30 -50 -6 43 -48 150
-59 150 -4 0 -6 -1 -6 -2z"/>
<path d="M2833 1328 c-50 -117 -100 -244 -111 -283 -21 -69 -33 -91 -121 -216
-114 -162 -235 -247 -424 -299 -164 -45 -371 -43 -711 5 -230 33 -347 59 -466
101 -106 37 -96 22 25 -36 234 -111 560 -158 910 -131 264 21 347 45 494 142
100 66 259 211 327 301 65 83 121 195 143 279 17 66 40 349 29 349 -3 0 -45
-96 -95 -212z"/>
<path d="M2273 1480 c-154 -32 -239 -193 -203 -384 27 -142 113 -227 239 -234
130 -8 209 36 263 146 30 61 33 74 33 162 0 114 -22 174 -88 238 -66 65 -154
90 -244 72z m127 -305 l0 -65 -59 0 c-66 0 -71 5 -71 75 l0 44 43 4 c96 8 87
15 87 -58z"/>
<path d="M564 1285 c-40 -53 -49 -107 -25 -160 23 -52 56 -76 114 -82 52 -6
122 19 114 41 -15 39 -151 236 -162 236 -8 0 -26 -16 -41 -35z"/>
<path d="M2957 922 c-22 -25 -21 -45 3 -67 17 -15 24 -16 45 -7 44 20 27 92
-23 92 -5 0 -16 -8 -25 -18z"/>
<path d="M3127 896 c-7 -16 1 -26 20 -26 7 0 13 9 13 20 0 23 -25 27 -33 6z"/>
<path d="M2941 713 c-22 -37 -39 -69 -37 -70 2 -2 32 -5 67 -7 35 -2 75 -6 89
-10 23 -6 28 -2 58 59 47 95 47 95 -52 95 l-85 0 -40 -67z"/>
<path d="M2910 554 c0 -75 8 -91 50 -108 21 -8 55 -29 74 -47 56 -48 70 -36
61 54 -4 39 -12 77 -17 84 -5 7 -40 22 -76 34 -37 12 -73 24 -79 27 -9 3 -13
-10 -13 -44z"/>
<path d="M2724 541 c-65 -28 -161 -81 -231 -128 -67 -44 -142 -88 -169 -98
-27 -10 -53 -21 -57 -25 -5 -4 29 -13 75 -19 128 -18 124 -15 79 -69 -42 -50
-94 -150 -85 -164 6 -9 49 14 135 74 30 20 66 40 80 43 26 6 27 5 38 -56 6
-34 13 -65 16 -68 18 -18 71 97 121 264 33 110 63 181 103 238 27 39 31 58 12
56 -3 0 -56 -22 -117 -48z"/>
</g>
</svg>
