<?xml version="1.0" standalone="no"?>
<!DOCTYPE svg PUBLIC "-//W3C//DTD SVG 20010904//EN"
 "http://www.w3.org/TR/2001/REC-SVG-20010904/DTD/svg10.dtd">
<svg version="1.0" xmlns="http://www.w3.org/2000/svg"
 width="133.000000pt" height="154.000000pt" viewBox="0 0 133.000000 154.000000"
 preserveAspectRatio="xMidYMid meet">

<g transform="translate(0.000000,154.000000) scale(0.100000,-0.100000)"
fill="#000000" stroke="none">
<path d="M0 770 l0 -770 665 0 665 0 0 770 0 770 -665 0 -665 0 0 -770z m895
691 c3 -5 -24 -35 -60 -67 -36 -32 -65 -61 -65 -64 0 -4 74 -82 165 -174 91
-92 165 -166 165 -164 0 2 -20 53 -45 113 -47 116 -53 139 -32 133 18 -5 76
-128 77 -161 0 -15 17 -69 39 -120 39 -94 44 -125 45 -279 1 -43 2 -78 2 -78
8 0 34 155 29 171 -4 12 -1 49 6 82 l12 59 16 -38 c15 -38 15 -38 23 -14 5 16
6 9 3 -23 -3 -26 -14 -60 -24 -75 -15 -19 -26 -67 -40 -166 -11 -76 -23 -141
-25 -144 -3 -2 -12 -2 -21 2 -11 4 -14 13 -10 28 3 13 -11 -8 -33 -47 -32 -57
-37 -75 -31 -98 8 -27 7 -28 -22 -22 -24 6 -36 0 -73 -32 -88 -77 -217 -123
-346 -123 -92 0 -164 19 -252 64 -38 20 -68 31 -68 25 0 -5 42 -36 93 -69 130
-83 134 -86 121 -100 -8 -8 -38 9 -116 68 -82 63 -110 79 -129 75 -34 -6 -89
39 -89 73 0 19 5 24 25 24 14 0 25 2 25 5 0 3 -16 26 -37 52 -36 48 -82 139
-85 171 -1 9 -4 -8 -7 -38 -3 -30 -4 -57 -1 -60 11 -11 36 -160 42 -250 l3
-55 -37 -3 c-48 -4 -51 5 -46 182 2 75 0 137 -4 139 -10 3 -59 450 -50 459 4
3 19 10 34 13 34 9 35 6 47 -100 4 -44 9 -68 10 -54 3 65 78 219 126 259 8 7
15 21 15 31 0 11 7 19 17 19 9 0 31 11 49 25 51 39 154 84 206 91 43 6 59 18
190 135 79 71 146 129 150 129 4 0 9 -4 13 -9z m-370 -201 c3 -5 -1 -10 -9
-10 -9 0 -16 5 -16 10 0 6 4 10 9 10 6 0 13 -4 16 -10z m-185 -40 c0 -5 -4
-10 -10 -10 -5 0 -10 5 -10 10 0 6 5 10 10 10 6 0 10 -4 10 -10z m-103 -164
c-4 -9 -16 -16 -27 -16 -29 0 -38 30 -15 47 16 11 21 11 33 -1 8 -8 12 -22 9
-30z m-92 -6 c-3 -5 -10 -10 -16 -10 -5 0 -9 5 -9 10 0 6 7 10 16 10 8 0 12
-4 9 -10z m1047 -25 c0 -5 -5 -11 -11 -13 -6 -2 -11 4 -11 13 0 9 5 15 11 13
6 -2 11 -8 11 -13z m-1032 -24 c0 -6 -4 -13 -10 -16 -5 -3 -10 1 -10 9 0 9 5
16 10 16 6 0 10 -4 10 -9z m990 -607 c0 -9 -5 -14 -12 -12 -18 6 -21 28 -4 28
9 0 16 -7 16 -16z m43 -40 c3 -3 1 -17 -5 -30 -9 -18 -19 -24 -45 -24 -37 0
-40 6 -17 38 14 20 53 30 67 16z m-116 -88 c-9 -13 -25 -53 -37 -89 -11 -35
-27 -73 -35 -83 -14 -18 -14 -18 -15 3 0 32 -12 35 -49 12 -42 -25 -51 -17
-23 20 24 33 20 41 -22 41 -28 0 -26 2 30 36 52 32 152 84 163 84 2 0 -4 -11
-12 -24z m91 2 c13 -11 17 -62 5 -56 -56 27 -63 33 -63 55 0 21 3 23 23 17 12
-3 28 -11 35 -16z"/>
<path d="M701 1273 l-54 -47 80 -13 c43 -7 101 -21 127 -32 l47 -21 -72 80
c-40 44 -73 80 -74 80 0 0 -25 -21 -54 -47z"/>
<path d="M450 1130 c-8 -5 -10 -10 -5 -10 6 0 17 5 25 10 8 5 11 10 5 10 -5 0
-17 -5 -25 -10z"/>
<path d="M781 1137 c2 -1 11 -8 21 -15 12 -10 18 -10 24 -1 4 7 3 9 -4 5 -6
-3 -13 -2 -17 4 -3 5 -11 10 -17 10 -6 0 -9 -1 -7 -3z"/>
<path d="M875 1050 c10 -11 20 -20 23 -20 3 0 -3 9 -13 20 -10 11 -20 20 -23
20 -3 0 3 -9 13 -20z"/>
<path d="M1015 1000 c10 -11 20 -20 23 -20 3 0 -3 9 -13 20 -10 11 -20 20 -23
20 -3 0 3 -9 13 -20z"/>
<path d="M213 947 c-55 -60 -58 -134 -7 -185 19 -19 77 -26 103 -13 14 8 21 8
21 1 0 -5 9 -10 20 -10 17 0 20 7 20 44 0 25 5 46 12 48 28 10 -7 28 -53 28
-37 0 -49 -4 -49 -15 0 -9 9 -15 25 -15 31 0 33 -23 3 -44 -30 -21 -43 -20
-72 8 -51 46 -25 146 37 146 27 0 57 -28 57 -53 0 -10 8 -17 20 -17 17 0 20 7
20 48 l0 49 -68 1 c-59 1 -72 -2 -89 -21z"/>
<path d="M440 870 c-24 -55 -47 -100 -52 -100 -4 0 -8 -4 -8 -10 0 -5 9 -10
20 -10 13 0 26 12 37 35 15 32 20 35 60 35 36 0 45 -4 52 -22 5 -13 5 -24 0
-26 -23 -9 -7 -32 21 -32 18 0 30 5 30 13 -1 30 -87 212 -102 215 -11 2 -27
-24 -58 -98z m80 -7 c0 -7 -11 -13 -25 -13 -29 0 -29 0 -13 35 11 25 13 26 25
9 7 -10 13 -24 13 -31z"/>
<path d="M604 959 c-4 -7 -2 -15 4 -17 8 -2 12 -36 12 -103 l0 -99 55 0 c49 0
55 2 55 20 0 18 -4 20 -35 14 l-34 -6 -3 98 c-3 93 -4 99 -25 102 -11 2 -25
-2 -29 -9z"/>
<path d="M948 962 c-10 -2 -18 -10 -18 -18 0 -12 8 -13 36 -8 l36 7 -4 -102
c-4 -100 -3 -101 19 -101 22 0 23 3 23 98 l0 99 36 1 c37 1 52 8 42 17 -6 6
-146 12 -170 7z"/>
<path d="M771 933 c-23 -22 -32 -39 -36 -77 -4 -40 -3 -46 9 -37 11 9 15 8 20
-4 4 -10 2 -14 -5 -9 -6 3 -4 -5 6 -19 17 -27 39 -40 49 -30 11 11 6 23 -10
23 -8 0 -13 4 -10 9 4 5 0 12 -6 14 -9 4 -5 12 12 26 31 25 24 33 -18 22 -29
-9 -32 -7 -32 11 0 12 2 19 5 16 3 -3 20 8 36 23 17 16 35 26 40 23 14 -8 29
5 22 21 -9 24 -50 17 -82 -12z"/>
<path d="M872 926 c-1 -14 3 -28 8 -31 6 -4 7 -11 4 -17 -4 -6 3 -5 15 2 19
10 27 46 9 38 -4 -2 -13 5 -20 15 -13 17 -14 16 -16 -7z"/>
<path d="M1098 903 c-15 -14 -19 -14 -35 -2 -17 13 -17 13 0 -7 9 -11 14 -24
10 -27 -3 -4 1 -7 10 -7 9 0 21 -8 27 -17 8 -15 9 -13 4 9 -4 20 -1 30 15 40
12 7 21 16 21 20 0 14 -35 8 -52 -9z"/>
<path d="M1231 860 c0 -8 4 -22 9 -30 12 -18 12 -2 0 25 -6 13 -9 15 -9 5z"/>
<path d="M871 797 c-13 -34 -14 -47 -2 -47 5 0 11 10 15 23 5 18 8 19 15 7 8
-12 12 -10 19 10 10 27 -4 42 -18 20 -6 -9 -9 -9 -13 1 -3 9 -9 4 -16 -14z"/>
<path d="M830 764 c0 -8 5 -12 10 -9 6 3 10 10 10 16 0 5 -4 9 -10 9 -5 0 -10
-7 -10 -16z"/>
<path d="M1142 740 c0 -14 2 -19 5 -12 2 6 2 18 0 25 -3 6 -5 1 -5 -13z"/>
<path d="M256 654 c-9 -8 -16 -28 -16 -43 0 -15 -9 -36 -20 -46 -33 -30 -26
-78 20 -140 22 -30 46 -55 52 -55 7 0 0 13 -15 28 -32 33 -34 42 -8 35 10 -3
28 0 39 6 15 8 23 7 32 -4 7 -8 19 -15 26 -15 12 0 12 4 -1 24 -15 22 -14 26
5 59 13 22 17 38 11 41 -6 4 -17 -8 -26 -25 l-17 -32 -39 59 c-21 33 -39 64
-39 71 0 19 32 32 57 22 28 -11 41 6 14 20 -28 15 -57 13 -75 -5z m29 -134
c32 -51 32 -60 -4 -60 -50 0 -70 47 -38 88 13 17 14 17 42 -28z"/>
<path d="M1116 653 c-6 -14 -5 -15 5 -6 7 7 10 15 7 18 -3 3 -9 -2 -12 -12z"/>
<path d="M847 646 c-49 -18 -67 -34 -84 -73 -56 -136 66 -264 199 -208 19 8
43 26 52 40 24 37 47 105 36 105 -6 0 -10 10 -10 23 0 29 -33 82 -62 100 -35
22 -89 28 -131 13z m104 -47 c32 -23 54 -86 44 -128 -4 -14 -18 -38 -33 -53
-35 -37 -98 -39 -130 -5 -94 99 11 263 119 186z"/>
<path d="M877 523 c-4 -3 -7 -15 -7 -25 0 -13 7 -18 25 -18 20 0 25 5 25 25 0
18 -5 25 -18 25 -10 0 -22 -3 -25 -7z"/>
<path d="M686 643 c-4 -5 -34 -6 -66 -5 -74 5 -113 -15 -141 -70 -51 -100 13
-219 120 -222 50 -1 94 20 114 53 24 42 22 61 -8 61 -14 0 -25 -6 -25 -13 0
-25 -45 -57 -79 -57 -81 0 -122 112 -65 179 21 25 33 31 65 31 44 0 79 -27 79
-60 0 -15 7 -20 25 -20 24 0 25 2 25 65 0 56 -2 65 -18 65 -10 0 -22 -3 -26
-7z"/>
<path d="M335 335 c30 -25 59 -39 51 -26 -4 6 -22 18 -39 27 -30 14 -31 14
-12 -1z"/>
</g>
</svg>
