<?xml version="1.0" standalone="no"?>
<!DOCTYPE svg PUBLIC "-//W3C//DTD SVG 20010904//EN"
 "http://www.w3.org/TR/2001/REC-SVG-20010904/DTD/svg10.dtd">
<svg version="1.0" xmlns="http://www.w3.org/2000/svg"
 width="129.000000pt" height="234.000000pt" viewBox="0 0 129.000000 234.000000"
 preserveAspectRatio="xMidYMid meet">

<g transform="translate(0.000000,234.000000) scale(0.100000,-0.100000)"
fill="#000000" stroke="none">
<path d="M145 2210 c-3 -5 -3 -20 1 -34 4 -16 0 -33 -10 -48 -30 -42 -15 -101
30 -118 13 -5 29 -21 34 -36 9 -23 5 -32 -35 -78 l-44 -52 -10 -320 c-23 -699
-22 -650 -3 -667 12 -10 65 -20 172 -31 198 -20 217 -20 229 2 5 10 48 228 96
486 79 434 85 470 70 492 -8 13 -15 36 -15 52 0 44 -41 115 -76 133 -18 8 -46
27 -63 42 -75 63 -195 38 -224 -45 -4 -10 -16 -18 -27 -18 -25 0 -28 41 -5 60
11 9 15 26 13 54 -3 34 -9 44 -42 67 -22 14 -43 36 -47 48 -9 22 -33 28 -44
11z m80 -130 c0 -18 -6 -26 -23 -28 -13 -2 -25 3 -28 12 -10 26 4 48 28 44 17
-2 23 -10 23 -28z m260 -85 c14 -13 25 -33 25 -45 0 -23 31 -41 38 -22 7 23
30 12 46 -22 14 -29 22 -76 13 -76 -21 0 -392 41 -394 44 -2 2 8 13 23 25 18
14 41 21 70 21 23 0 49 3 58 6 20 8 21 44 1 44 -22 0 -18 17 7 34 34 24 85 20
113 -9z m-55 -198 l205 -23 -3 -25 c-7 -56 -160 -881 -165 -885 -5 -5 -318 25
-324 30 -2 1 25 907 27 924 0 5 64 0 260 -21z"/>
<path d="M395 1990 c-3 -5 6 -12 20 -16 14 -3 32 -18 40 -33 12 -24 14 -24 21
-7 13 33 -63 85 -81 56z"/>
<path d="M196 1712 c-11 -18 -27 -705 -17 -715 10 -10 183 -36 248 -37 40 0
35 -19 108 389 37 205 53 317 46 324 -11 11 -261 40 -270 31 -3 -3 -13 -75
-22 -160 -9 -85 -19 -157 -23 -161 -17 -17 -17 19 -2 163 19 171 18 174 -36
174 -15 0 -29 -3 -32 -8z"/>
<path d="M1127 1198 c-3 -563 -5 -1034 -6 -1048 -1 -28 22 -56 39 -45 8 5 8
10 0 20 -8 10 -11 300 -10 1054 0 690 -3 1041 -9 1041 -7 0 -12 -348 -14
-1022z"/>
</g>
</svg>
