<?xml version="1.0" standalone="no"?>
<!DOCTYPE svg PUBLIC "-//W3C//DTD SVG 20010904//EN"
 "http://www.w3.org/TR/2001/REC-SVG-20010904/DTD/svg10.dtd">
<svg version="1.0" xmlns="http://www.w3.org/2000/svg"
 width="111.000000pt" height="358.000000pt" viewBox="0 0 111.000000 358.000000"
 preserveAspectRatio="xMidYMid meet">

<g transform="translate(0.000000,358.000000) scale(0.100000,-0.100000)"
fill="#000000" stroke="none">
<path d="M987 3108 c-4 -179 -11 -304 -21 -363 -44 -252 -49 -315 -50 -680 -1
-198 -5 -544 -10 -770 -7 -367 -10 -419 -29 -495 -18 -74 -21 -122 -25 -373
-3 -251 -1 -292 13 -313 21 -33 31 -30 54 15 19 37 20 54 14 407 -5 374 -5
385 33 642 5 34 4 42 -9 42 -9 0 -18 -11 -21 -28 -2 -15 -2 74 1 198 2 124 8
430 13 680 6 397 10 471 29 580 32 185 40 292 41 523 0 170 -2 207 -14 207
-11 0 -15 -50 -19 -272z m-82 -2935 c-3 -18 -10 -33 -15 -33 -12 0 -14 494 -2
555 4 25 10 -60 15 -225 4 -146 5 -280 2 -297z"/>
<path d="M600 2581 c-49 -31 -85 -72 -118 -138 -33 -63 -37 -114 -16 -172 14
-40 15 -55 6 -75 -22 -48 -262 -434 -337 -541 -43 -61 -81 -127 -88 -153 -11
-41 -10 -45 12 -63 13 -10 29 -19 36 -19 22 0 79 75 104 137 48 119 164 352
243 491 66 115 87 144 107 148 79 16 101 27 141 70 69 75 102 179 86 269 -15
80 -91 100 -176 46z"/>
</g>
</svg>
