<?xml version="1.0" standalone="no"?>
<!DOCTYPE svg PUBLIC "-//W3C//DTD SVG 20010904//EN"
 "http://www.w3.org/TR/2001/REC-SVG-20010904/DTD/svg10.dtd">
<svg version="1.0" xmlns="http://www.w3.org/2000/svg"
 width="28.000000pt" height="51.000000pt" viewBox="0 0 28.000000 51.000000"
 preserveAspectRatio="xMidYMid meet">

<g transform="translate(0.000000,51.000000) scale(0.100000,-0.100000)"
fill="#000000" stroke="none">
<path d="M110 391 l0 -50 38 -4 37 -4 -40 -1 c-34 -2 -43 -8 -63 -37 -12 -20
-25 -49 -29 -65 l-5 -30 96 0 96 0 0 -50 0 -50 -89 0 -90 0 -4 28 c-4 20 -4
18 -3 -8 l1 -35 95 0 95 0 3 74 c3 79 -7 118 -39 147 -15 13 -19 31 -19 76 l0
58 -40 0 -40 0 0 -49z m53 -88 c-7 -2 -19 -2 -25 0 -7 3 -2 5 12 5 14 0 19 -2
13 -5z"/>
<path d="M118 169 c-43 -24 1 -59 57 -45 30 8 33 31 6 46 -24 12 -41 12 -63
-1z"/>
</g>
</svg>
