<?xml version="1.0" standalone="no"?>
<!DOCTYPE svg PUBLIC "-//W3C//DTD SVG 20010904//EN"
 "http://www.w3.org/TR/2001/REC-SVG-20010904/DTD/svg10.dtd">
<svg version="1.0" xmlns="http://www.w3.org/2000/svg"
 width="29.000000pt" height="75.000000pt" viewBox="0 0 29.000000 75.000000"
 preserveAspectRatio="xMidYMid meet">

<g transform="translate(0.000000,75.000000) scale(0.100000,-0.100000)"
fill="#000000" stroke="none">
<path d="M125 700 c-4 -6 -8 -49 -9 -95 l-2 -85 28 0 29 0 -3 92 c-3 77 -6 93
-20 96 -9 2 -19 -2 -23 -8z"/>
<path d="M114 498 c-5 -7 -9 -17 -9 -23 -1 -5 -7 -23 -14 -40 -7 -16 -15 -58
-18 -92 l-6 -63 72 0 71 0 0 -91 0 -91 -70 4 c-66 3 -71 2 -68 -17 3 -17 12
-20 61 -23 90 -5 90 -4 84 173 -6 182 -27 268 -70 273 -14 2 -29 -3 -33 -10z"/>
<path d="M126 225 c-14 -14 -26 -31 -26 -38 0 -20 29 -55 42 -53 40 6 49 42
24 91 l-14 26 -26 -26z"/>
</g>
</svg>
