<?xml version="1.0" standalone="no"?>
<!DOCTYPE svg PUBLIC "-//W3C//DTD SVG 20010904//EN"
 "http://www.w3.org/TR/2001/REC-SVG-20010904/DTD/svg10.dtd">
<svg version="1.0" xmlns="http://www.w3.org/2000/svg"
 width="51.000000pt" height="96.000000pt" viewBox="0 0 51.000000 96.000000"
 preserveAspectRatio="xMidYMid meet">

<g transform="translate(0.000000,96.000000) scale(0.100000,-0.100000)"
fill="#000000" stroke="none">
<path d="M0 480 l0 -480 255 0 255 0 0 480 0 480 -255 0 -255 0 0 -480z m289
331 c10 -6 14 -36 15 -108 l1 -98 -30 1 c-26 1 -27 1 -3 -3 35 -6 57 -31 37
-44 -12 -7 -11 -9 3 -9 10 0 22 -17 34 -47 22 -62 33 -355 14 -378 -18 -22
-172 -21 -190 0 -10 12 -12 53 -7 173 7 179 24 251 60 253 17 1 18 2 5 6 -20
5 -23 18 -8 28 6 4 10 53 10 115 0 107 3 117 35 119 6 0 16 -3 24 -8z"/>
<path d="M258 543 c6 -2 18 -2 25 0 6 3 1 5 -13 5 -14 0 -19 -2 -12 -5z"/>
<path d="M170 255 l0 -95 95 0 95 0 0 95 0 95 -95 0 -95 0 0 -95z m108 37
c-11 -13 -10 -15 3 -10 36 14 52 -41 22 -74 -23 -26 -59 -23 -79 7 -21 32 -15
57 16 66 14 4 19 7 13 8 -24 2 -13 16 12 17 22 2 24 0 13 -14z"/>
</g>
</svg>
