<?xml version="1.0" standalone="no"?>
<!DOCTYPE svg PUBLIC "-//W3C//DTD SVG 20010904//EN"
 "http://www.w3.org/TR/2001/REC-SVG-20010904/DTD/svg10.dtd">
<svg version="1.0" xmlns="http://www.w3.org/2000/svg"
 width="46.000000pt" height="49.000000pt" viewBox="0 0 46.000000 49.000000"
 preserveAspectRatio="xMidYMid meet">

<g transform="translate(0.000000,49.000000) scale(0.100000,-0.100000)"
fill="#000000" stroke="none">
<path d="M87 433 c-4 -3 -7 -18 -7 -33 0 -16 -12 -37 -30 -55 l-31 -29 3 -136
3 -135 193 -3 192 -2 0 138 0 138 -35 34 c-24 23 -35 43 -35 62 l0 28 -123 0
c-68 0 -127 -3 -130 -7z m218 -33 c9 -14 -33 -21 -109 -18 -44 2 -71 8 -74 16
-5 15 173 18 183 2z m30 -60 c18 -20 17 -20 -64 -20 -80 0 -121 10 -121 30 0
6 37 10 83 10 71 0 87 -3 102 -20z m-214 -10 c17 -10 19 -22 19 -136 l0 -125
-42 3 -43 3 0 116 c0 139 13 167 66 139z m249 -145 l0 -115 -95 0 -95 0 0 115
0 115 95 0 95 0 0 -115z"/>
<path d="M243 223 c-29 -11 -10 -23 37 -23 49 0 66 12 34 24 -18 7 -53 7 -71
-1z"/>
<path d="M230 160 c0 -14 45 -23 75 -16 42 11 28 26 -25 26 -27 0 -50 -4 -50
-10z"/>
</g>
</svg>
